<?xml version="1.0" encoding="UTF-8"?>
<!DOCTYPE svg PUBLIC "-//W3C//DTD SVG 1.1//EN" "http://www.w3.org/Graphics/SVG/1.1/DTD/svg11.dtd">
<!-- Creator: CorelDRAW -->
<svg xmlns="http://www.w3.org/2000/svg" xml:space="preserve" width="2048px" height="2048px" style="shape-rendering:geometricPrecision; text-rendering:geometricPrecision; image-rendering:optimizeQuality; fill-rule:evenodd; clip-rule:evenodd"
viewBox="0 0 2048 2048"
 xmlns:xlink="http://www.w3.org/1999/xlink">
 <defs>
  <style type="text/css">
   <![CDATA[
    .fil2 {fill:none}
    .fil1 {fill:#66BB6A}
    .fil0 {fill:#A5D6A7}
    .fil4 {fill:#CA2B03}
    .fil5 {fill:#DD2C00}
    .fil3 {fill:#FFFFFE;fill-rule:nonzero}
   ]]>
  </style>
   <clipPath id="id0">
    <path d="M1024 -0.0011811c565.541,0 1024,458.461 1024,1024 0,565.541 -458.461,1024 -1024,1024 -565.541,0 -1024,-458.461 -1024,-1024 0,-565.541 458.461,-1024 1024,-1024z"/>
   </clipPath>
 </defs>
 <g id="Layer_x0020_1">
  <metadata id="CorelCorpID_0Corel-Layer"/>
  <path class="fil0" d="M1024 -0.0011811c565.541,0 1024,458.461 1024,1024 0,565.541 -458.461,1024 -1024,1024 -565.541,0 -1024,-458.461 -1024,-1024 0,-565.541 458.461,-1024 1024,-1024z"/>
  <g style="clip-path:url(#id0)">
   <g id="_517152664">
    <g>
     <path id="_2610862081" class="fil1" d="M2696.37 2695.91l0 0zm-1135.88 -1135.88l0 0z"/>
     <polygon id="_261085872" class="fil1" points="848.717,652.874 1984.6,1788.76 1983.18,1787.34 1981.8,1785.99 1980.46,1784.69 1979.17,1783.46 1977.93,1782.28 1976.73,1781.17 1975.57,1780.12 1974.46,1779.13 838.58,643.244 839.69,644.235 840.846,645.288 842.046,646.401 843.292,647.575 844.582,648.811 845.917,650.105 847.295,651.46 "/>
     <polygon id="_261086520" class="fil1" points="838.58,643.244 1974.46,1779.13 1775.25,1600.37 639.367,464.49 "/>
     <polygon id="_261086664" class="fil1" points="936.637,745.68 2072.52,1881.56 2072.34,1885.09 2072.26,1888.93 2072.28,1893.07 2072.37,1897.5 2072.56,1902.18 2072.84,1907.11 2073.19,1912.28 2073.63,1917.66 2074.16,1923.24 2074.76,1929 2075.44,1934.93 2076.19,1941.02 2077.03,1947.24 2077.93,1953.57 2078.9,1960.01 2079.95,1966.54 2081.06,1973.13 2082.24,1979.79 2083.48,1986.47 2084.79,1993.18 2086.16,1999.9 2087.59,2006.61 2089.08,2013.29 2090.62,2019.93 2092.22,2026.5 2093.87,2033.01 2095.57,2039.42 2097.33,2045.72 2099.13,2051.9 2100.98,2057.94 2102.87,2063.83 2104.81,2069.54 968.926,933.661 966.989,927.948 965.095,922.063 963.246,916.021 961.445,909.84 959.691,903.536 957.988,897.124 956.336,890.62 954.738,884.043 953.194,877.405 951.707,870.726 950.279,864.02 948.91,857.303 947.603,850.592 946.359,843.903 945.18,837.252 944.066,830.656 943.022,824.129 942.048,817.69 941.144,811.353 940.313,805.134 939.557,799.052 938.878,793.12 938.276,787.357 937.753,781.776 937.313,776.395 936.955,771.23 936.681,766.297 936.493,761.613 936.394,757.192 936.383,753.053 936.464,749.21 "/>
     <polygon id="_261086568" class="fil1" points="1561.31,1446.33 2697.19,2582.22 2697.21,2582.23 1561.32,1446.35 "/>
     <polygon id="_261087072" class="fil1" points="1561.34,1446.37 2697.22,2582.25 2697.24,2582.26 1561.36,1446.38 "/>
     <polygon id="_261086952" class="fil1" points="1561.37,1446.4 2697.25,2582.28 2697.27,2582.3 1561.39,1446.41 "/>
     <polygon id="_261087000" class="fil1" points="1561.77,1446.8 2697.65,2582.69 2697.84,2582.87 2698.02,2583.06 2698.2,2583.25 2698.38,2583.44 2698.56,2583.63 2698.74,2583.82 1562.86,1447.94 1562.68,1447.75 1562.5,1447.56 1562.32,1447.37 1562.14,1447.18 1561.96,1446.99 "/>
     <polygon id="_261087048" class="fil1" points="1562.86,1447.94 2698.74,2583.82 2699.58,2584.72 2700.39,2585.63 2701.19,2586.55 2701.98,2587.48 2702.74,2588.43 2703.49,2589.38 2704.22,2590.34 2704.94,2591.31 2705.64,2592.3 2706.32,2593.29 2706.99,2594.29 2707.64,2595.3 2708.27,2596.32 2708.89,2597.35 2709.48,2598.38 2710.07,2599.43 1574.19,1463.55 1573.6,1462.5 1573,1461.47 1572.39,1460.44 1571.76,1459.42 1571.11,1458.41 1570.44,1457.41 1569.76,1456.41 1569.06,1455.43 1568.34,1454.46 1567.61,1453.5 1566.86,1452.54 1566.09,1451.6 1565.31,1450.67 1564.51,1449.75 1563.7,1448.84 "/>
     <polygon id="_261087192" class="fil1" points="1574.19,1463.55 2710.07,2599.43 2710.68,2600.58 2711.28,2601.74 2711.85,2602.91 2712.4,2604.08 2712.94,2605.27 2713.45,2606.46 2713.94,2607.65 2714.41,2608.86 2714.87,2610.07 2715.3,2611.28 2715.71,2612.51 2716.1,2613.73 2716.47,2614.97 2716.82,2616.21 2717.16,2617.45 2717.47,2618.69 2717.76,2619.95 2718.03,2621.2 2718.29,2622.46 2718.52,2623.72 2718.74,2624.99 2718.93,2626.26 2719.11,2627.53 2719.27,2628.8 2719.41,2630.08 2719.53,2631.36 2719.63,2632.64 2719.71,2633.92 2719.77,2635.2 2719.82,2636.48 2719.85,2637.76 2719.86,2639.05 2719.86,2639.4 2719.85,2639.75 2719.85,2640.1 2719.85,2640.45 2719.84,2640.81 2719.83,2641.16 2719.82,2641.51 2719.81,2641.86 1583.93,1505.98 1583.94,1505.63 1583.95,1505.27 1583.96,1504.92 1583.96,1504.57 1583.97,1504.22 1583.97,1503.87 1583.98,1503.51 1583.98,1503.16 1583.97,1501.88 1583.94,1500.6 1583.89,1499.31 1583.83,1498.03 1583.75,1496.75 1583.65,1495.47 1583.53,1494.2 1583.39,1492.92 1583.23,1491.65 1583.05,1490.38 1582.86,1489.11 1582.64,1487.84 1582.41,1486.58 1582.15,1485.32 1581.88,1484.06 1581.59,1482.81 1581.27,1481.57 1580.94,1480.32 1580.59,1479.08 1580.22,1477.85 1579.83,1476.62 1579.42,1475.4 1578.99,1474.19 1578.53,1472.98 1578.06,1471.77 1577.57,1470.57 1577.06,1469.38 1576.52,1468.2 1575.97,1467.02 1575.4,1465.86 1574.8,1464.7 "/>
     <polygon id="_261087840" class="fil1" points="1583.93,1505.98 2719.81,2641.86 2719.71,2643.67 2719.58,2645.48 2719.4,2647.28 2719.19,2649.08 2718.94,2650.88 2718.65,2652.67 2718.32,2654.46 2717.95,2656.24 2717.54,2658.01 2717.09,2659.78 2716.6,2661.53 2716.07,2663.28 2715.51,2665.02 2714.9,2666.74 2714.25,2668.46 2713.57,2670.16 2712.84,2671.85 2712.08,2673.52 2711.28,2675.18 2710.43,2676.82 2709.55,2678.45 2708.63,2680.06 2707.67,2681.65 2706.67,2683.22 2705.63,2684.77 2704.55,2686.3 2703.43,2687.81 2702.27,2689.3 2701.07,2690.77 2699.84,2692.21 2698.56,2693.62 2697.24,2695.02 1561.36,1559.13 1562.68,1557.74 1563.95,1556.32 1565.19,1554.88 1566.39,1553.42 1567.55,1551.93 1568.67,1550.42 1569.75,1548.89 1570.79,1547.34 1571.79,1545.76 1572.75,1544.17 1573.67,1542.56 1574.55,1540.94 1575.4,1539.3 1576.2,1537.64 1576.96,1535.96 1577.69,1534.28 1578.37,1532.57 1579.02,1530.86 1579.62,1529.13 1580.19,1527.4 1580.72,1525.65 1581.21,1523.89 1581.66,1522.13 1582.06,1520.36 1582.44,1518.58 1582.77,1516.79 1583.06,1515 1583.31,1513.2 1583.52,1511.4 1583.7,1509.59 1583.83,1507.79 "/>
     <polygon id="_261087264" class="fil1" points="1561.36,1559.13 2697.24,2695.02 2697.24,2695.02 2697.23,2695.03 2697.22,2695.04 2697.22,2695.05 2697.21,2695.06 2697.2,2695.06 2697.19,2695.07 2697.18,2695.08 1561.3,1559.19 1561.31,1559.19 1561.32,1559.18 1561.33,1559.17 1561.33,1559.17 1561.34,1559.16 1561.35,1559.15 1561.35,1559.14 "/>
     <polygon id="_261087576" class="fil1" points="1036.45,1067.27 2172.33,2203.15 2074.76,2107.35 938.884,971.466 "/>
     <polygon id="_261087288" class="fil1" points="471.296,644.911 1607.18,1780.79 1608.08,1781.76 472.198,645.876 "/>
     <polygon id="_261087960" class="fil1" points="472.198,645.876 1608.08,1781.76 1778.64,1974.95 642.754,839.07 "/>
     <polygon id="_261087768" class="fil1" points="642.754,839.07 1778.64,1974.95 1779.63,1976.06 1780.68,1977.22 1781.79,1978.42 1782.97,1979.66 1784.2,1980.96 1785.5,1982.29 1786.85,1983.67 1788.26,1985.09 652.384,849.207 650.97,847.785 649.615,846.407 648.321,845.073 647.085,843.783 645.911,842.538 644.797,841.336 643.745,840.18 "/>
     <polygon id="_261087480" class="fil1" points="938.884,971.466 2074.76,2107.35 2069.06,2105.3 2063.16,2103.31 2057.08,2101.35 2050.83,2099.45 2044.44,2097.59 2037.91,2095.79 2031.27,2094.04 2024.54,2092.35 2017.74,2090.71 2010.87,2089.13 2003.96,2087.62 1997.04,2086.16 1990.1,2084.77 1983.18,2083.45 1976.29,2082.19 1969.45,2081.01 1962.67,2079.89 1955.98,2078.85 1949.39,2077.89 1942.92,2077 1936.59,2076.19 1930.41,2075.46 1924.4,2074.82 1918.59,2074.25 1912.98,2073.78 1907.6,2073.39 1902.47,2073.09 1897.59,2072.89 1893,2072.77 1888.7,2072.75 1884.72,2072.83 1881.07,2073.01 745.189,937.127 748.838,936.95 752.82,936.871 757.118,936.89 761.712,937.003 766.587,937.21 771.723,937.508 777.103,937.895 782.709,938.371 788.523,938.933 794.529,939.579 800.708,940.308 807.041,941.117 813.511,942.005 820.101,942.97 826.792,944.011 833.568,945.125 840.41,946.311 847.301,947.566 854.221,948.889 861.155,950.279 868.084,951.733 874.99,953.25 881.855,954.828 888.662,956.465 895.393,958.158 902.03,959.907 908.555,961.71 914.951,963.565 921.199,965.469 927.283,967.423 933.184,969.421 "/>
     <polygon id="_261087336" class="fil1" points="1561.3,1559.19 2697.18,2695.08 2697.08,2695.18 2696.98,2695.29 2696.88,2695.39 2696.78,2695.49 2696.68,2695.6 2696.58,2695.7 2696.48,2695.8 2696.37,2695.91 2693.38,2698.75 2690.27,2701.42 2687.06,2703.9 2683.76,2706.19 2680.37,2708.3 2676.91,2710.23 2673.36,2711.97 2669.76,2713.53 2666.09,2714.9 2662.38,2716.09 2658.62,2717.1 2654.82,2717.93 2651,2718.57 2647.16,2719.02 2643.3,2719.3 2639.43,2719.39 2635.57,2719.29 2631.71,2719.02 2627.87,2718.56 2624.05,2717.91 2620.26,2717.09 2616.51,2716.07 2612.8,2714.88 2609.15,2713.51 2605.55,2711.95 2602.02,2710.2 2598.57,2708.28 2595.19,2706.17 2591.91,2703.88 2588.71,2701.4 2585.63,2698.75 2582.65,2695.91 1446.77,1560.02 1449.75,1562.86 1452.83,1565.52 1456.02,1568 1459.31,1570.29 1462.68,1572.4 1466.14,1574.32 1469.67,1576.06 1473.27,1577.62 1476.92,1579 1480.63,1580.19 1484.38,1581.2 1488.17,1582.03 1491.99,1582.67 1495.83,1583.13 1499.69,1583.41 1503.55,1583.5 1507.42,1583.41 1511.27,1583.14 1515.12,1582.68 1518.94,1582.04 1522.74,1581.22 1526.5,1580.21 1530.21,1579.02 1533.88,1577.65 1537.48,1576.09 1541.02,1574.34 1544.49,1572.42 1547.88,1570.31 1551.18,1568.01 1554.39,1565.53 1557.49,1562.87 1560.49,1560.03 1560.59,1559.92 1560.7,1559.82 1560.8,1559.72 1560.9,1559.61 1561,1559.51 1561.1,1559.4 1561.2,1559.3 "/>
     <polygon id="_261087552" class="fil1" points="652.384,849.207 1788.26,1985.09 1791.44,1988.24 655.562,852.355 "/>
     <polygon id="_261087672" class="fil1" points="745.189,937.127 1881.07,2073.01 1877.13,2073.21 1873.18,2073.31 1869.22,2073.3 1865.26,2073.18 1861.29,2072.95 1857.32,2072.61 1853.34,2072.15 1849.36,2071.58 1845.38,2070.89 1841.39,2070.08 1837.4,2069.15 1833.41,2068.1 1829.42,2066.93 1825.43,2065.63 1821.44,2064.2 1817.45,2062.65 1813.46,2060.97 1809.47,2059.15 1805.49,2057.2 1801.51,2055.12 1797.53,2052.91 1793.56,2050.55 1789.59,2048.06 1785.63,2045.43 1781.68,2042.65 1777.73,2039.74 1773.79,2036.67 1769.86,2033.46 1765.93,2030.11 1762.02,2026.6 1758.12,2022.94 622.236,887.058 626.139,890.716 630.052,894.223 633.975,897.581 637.907,900.79 641.847,903.853 645.794,906.771 649.749,909.545 653.71,912.179 657.676,914.671 661.648,917.025 665.625,919.241 669.605,921.322 673.589,923.27 677.575,925.084 681.564,926.767 685.555,928.32 689.546,929.746 693.538,931.045 697.529,932.219 701.52,933.27 705.51,934.2 709.496,935.007 713.481,935.698 717.462,936.271 721.439,936.728 725.412,937.071 729.38,937.301 733.342,937.42 737.298,937.43 741.247,937.332 "/>
     <polygon id="_261088632" class="fil1" points="851.747,655.928 1987.63,1791.81 1984.6,1788.76 848.717,652.874 "/>
     <polygon id="_261088488" class="fil1" points="886.568,622.726 2022.45,1758.61 2026.11,1762.51 2029.61,1766.42 2032.97,1770.35 2036.18,1774.28 2039.24,1778.22 2042.16,1782.17 2044.94,1786.12 2047.57,1790.08 2050.06,1794.05 2052.41,1798.02 2054.63,1802 2056.71,1805.98 2058.66,1809.96 2060.47,1813.95 2062.16,1817.94 2063.71,1821.93 2065.14,1825.92 2066.44,1829.91 2067.61,1833.9 2068.66,1837.89 2069.59,1841.88 2070.4,1845.87 2071.09,1849.85 2071.66,1853.84 2072.12,1857.81 2072.46,1861.79 2072.69,1865.75 2072.81,1869.72 2072.82,1873.67 2072.72,1877.62 2072.52,1881.56 936.637,745.68 936.842,741.739 936.94,737.789 936.93,733.834 936.811,729.871 936.581,725.904 936.237,721.93 935.78,717.954 935.207,713.972 934.517,709.987 933.708,706 932.78,702.011 931.729,698.02 930.555,694.029 929.255,690.037 927.83,686.045 926.276,682.055 924.592,678.067 922.778,674.079 920.832,670.095 918.751,666.115 916.534,662.138 914.18,658.166 911.688,654.2 909.055,650.239 906.281,646.284 903.362,642.337 900.3,638.397 897.09,634.465 893.733,630.543 890.226,626.63 "/>
     <polygon id="_261088560" class="fil1" points="1561.28,1446.3 2697.16,2582.18 2697.17,2582.2 1561.29,1446.32 "/>
    </g>
    <path id="_517152448" class="fil1" d="M1560.49 1560.02l0 0zm-921.126 -1095.53l230.999 142.833c5.0563,4.46339 9.17599,8.29371 12.3921,11.5099 41.4638,41.4638 56.6245,84.8457 53.8796,126.847 -2.34921,35.9268 11.3988,128.014 32.289,187.981 1.21299,0.549213 2.51575,1.49882 3.94607,2.92914l92.1343 91.1516c13.1032,13.1032 24.3709,23.0776 34.3158,30.7701 67.1363,51.9248 73.9359,-0.227953 177.328,103.165l284.626 284.626c0.0425197,0.0425197 0.0850394,0.0850394 0.126378,0.127559 0.494882,0.496063 0.981497,0.999213 1.45984,1.50709 4.48583,4.76575 8.26064,10.0193 11.3221,15.6083 6.68032,12.241 9.79135,25.9335 9.79135,39.6177 0,0.938977 -0.0165354,1.87795 -0.0484252,2.81575 -0.811418,19.2957 -8.30906,38.4437 -22.5673,53.1556 -0.0153543,0.0236221 -0.034252,0.0437008 -0.0590552,0.0590552 -0.264567,0.281103 -0.53504,0.5563 -0.811418,0.832678 -31.3453,31.3453 -82.5851,31.2638 -113.72,-0.0011811l-281.099 -283.451c-98.1154,-98.7438 -52.3784,-115.05 -103.445,-180.553 -6.72756,-8.63032 -15.1358,-18.1134 -25.7752,-28.7528l-97.5674 -95.8028c-59.6682,-22.0335 -156.607,-36.763 -193.695,-34.3382 -42.0012,2.74488 -85.382,-12.4146 -126.846,-53.8796l-11.511 -12.3921 -142.832 -230.998c3.04134,1.35236 5.84882,3.3626 8.19804,6.01772l170.556 193.194c2.55945,2.90079 5.78032,6.28819 9.62953,10.1374 33.6532,34.578 75.3213,36.7087 113.575,20.6492l-249.072 -281.319 289.307 256.942c6.98623,-5.61969 13.6547,-11.7791 19.9075,-18.3567l0.259843 -0.271654 0.271654 -0.259843c7.77757,-7.39371 14.9705,-15.3673 21.3768,-23.7614l-267.564 -284.903 290.7 244.075c14.0681,-37.0134 10.8154,-76.7741 -22.428,-109.128 -3.8504,-3.84803 -7.23662,-7.07008 -10.1374,-9.62953l-199.213 -178.754z"/>
   </g>
  </g>
  <path class="fil2" d="M1024 -0.0011811c565.541,0 1024,458.461 1024,1024 0,565.541 -458.461,1024 -1024,1024 -565.541,0 -1024,-458.461 -1024,-1024 0,-565.541 458.461,-1024 1024,-1024z"/>
  <path class="fil3" d="M464 639.858c3.04134,1.35236 5.84882,3.3626 8.19922,6.01772l170.555 193.195c2.55827,2.89961 5.78032,6.28701 9.62953,10.1362 52.8993,54.3532 125.6,28.5343 173.717,-22.0843l0.259843 -0.272835 0.271654 -0.258662c50.6197,-48.1181 76.4375,-120.819 22.0855,-173.718 -3.8504,-3.84803 -7.23662,-7.07008 -10.1374,-9.62953l-199.212 -178.754 230.998 142.832c5.0563,4.46575 9.17599,8.29489 12.3921,11.511 41.4638,41.465 56.6245,84.8457 53.8796,126.847 -2.68937,41.1284 15.7169,155.855 41.7851,211.74 -3.69213,4.18229 -7.08426,7.86615 -10.1835,11.0681l-0.119291 0.122835 -0.121654 0.11811c-3.20197,3.09921 -6.88583,6.49252 -11.0681,10.1835 -55.8851,-26.0681 -170.613,-44.4744 -211.74,-41.7851 -42.0012,2.74488 -85.3831,-12.4146 -126.847,-53.8784l-11.511 -12.3933 -142.832 -230.998z"/>
  <path class="fil3" d="M516.887 588.538l266.319 300.8c9.4004,9.39922 24.6414,9.39922 34.0418,0 9.39922,-9.39922 9.39922,-24.6414 0,-34.0406l-300.36 -266.759z"/>
  <path class="fil3" d="M580.445 517.927l278.075 296.098c9.39922,9.39922 24.6414,9.39922 34.0406,0 9.4004,-9.4004 9.4004,-24.6414 0,-34.0418l-312.116 -262.056z"/>
  <path class="fil3" d="M972.872 936.589c-9.4004,-9.39922 -13.2791,1.96299 -22.6795,11.3622 -9.39922,9.4004 -20.7614,14.0634 -11.3622,23.4626l97.6205 95.8548c91.3902,91.3902 18.1784,97.552 129.22,209.306l281.099 283.451 0.0011811 0c15.6543,15.6555 36.2658,23.4839 56.8595,23.4839 20.5949,0 41.2051,-7.82835 56.8595,-23.4827l0.0011811 -0.0011811 0.0011811 -0.0011811c15.6555,-15.6543 23.4839,-36.2658 23.4839,-56.8607 0,-20.5949 -7.04528,-41.2051 -22.6996,-56.8607l-284.626 -284.626c-118.708,-118.708 -110.086,-32.3752 -211.645,-133.934l-92.1331 -91.154z"/>
  <path class="fil4" d="M1080.08 1077.97l-17.8524 18.0508c51.0662,65.5028 5.33032,81.8091 103.445,180.553l281.099 283.451c31.1351,31.2638 82.376,31.3453 113.723,-0.0011811 0.274016,-0.274016 0.540945,-0.552756 0.809056,-0.830316l-481.223 -481.223z"/>
  <path class="fil5" d="M1099.32 1058.51l-18.8575 19.0677 -0.386221 0.390945 481.223 481.223 0.0590552 -0.0590552c30.3331,-31.3004 30.0685,-82.6784 -0.0838583,-112.832l-284.626 -284.626c-103.393,-103.393 -110.192,-51.2398 -177.328,-103.165z"/>
 </g>
</svg>
