<?xml version="1.0" encoding="UTF-8"?>
<!DOCTYPE svg PUBLIC "-//W3C//DTD SVG 1.1//EN" "http://www.w3.org/Graphics/SVG/1.1/DTD/svg11.dtd">
<!-- Creator: CorelDRAW -->
<svg xmlns="http://www.w3.org/2000/svg" xml:space="preserve" width="2048px" height="2048px" style="shape-rendering:geometricPrecision; text-rendering:geometricPrecision; image-rendering:optimizeQuality; fill-rule:evenodd; clip-rule:evenodd"
viewBox="0 0 2048 2048"
 xmlns:xlink="http://www.w3.org/1999/xlink">
 <defs>
  <style type="text/css">
   <![CDATA[
    .fil2 {fill:none}
    .fil5 {fill:#212121}
    .fil1 {fill:#512DA8}
    .fil0 {fill:#7E57C2}
    .fil4 {fill:#E53935}
    .fil6 {fill:#424242;fill-rule:nonzero}
    .fil3 {fill:#FFFFFE;fill-rule:nonzero}
   ]]>
  </style>
   <clipPath id="id0">
    <path d="M1024 0c565.539,0 1024,458.461 1024,1024 0,565.539 -458.461,1024 -1024,1024 -565.539,0 -1024,-458.461 -1024,-1024 0,-565.539 458.461,-1024 1024,-1024z"/>
   </clipPath>
 </defs>
 <g id="Layer_x0020_1">
  <metadata id="CorelCorpID_0Corel-Layer"/>
  <path class="fil0" d="M1024 0c565.539,0 1024,458.461 1024,1024 0,565.539 -458.461,1024 -1024,1024 -565.539,0 -1024,-458.461 -1024,-1024 0,-565.539 458.461,-1024 1024,-1024z"/>
  <g style="clip-path:url(#id0)">
   <g id="_341208472">
    <g>
     <polygon id="_3329257441" class="fil1" points="1402.25,538.101 2538.13,1673.98 2538.44,1677.26 2538.68,1680.58 2538.86,1683.94 2538.98,1687.33 2539.04,1690.75 2539.03,1694.2 2538.96,1697.68 2538.84,1701.19 2538.65,1704.73 2538.4,1708.3 2538.09,1711.89 2537.73,1715.5 2537.31,1719.13 2536.83,1722.78 2536.29,1726.46 2535.7,1730.15 2535.05,1733.85 2534.35,1737.58 2533.59,1741.31 2532.78,1745.06 2531.91,1748.81 2530.99,1752.58 2530.02,1756.36 2529,1760.14 2527.93,1763.92 2526.81,1767.71 2525.64,1771.51 2524.41,1775.3 2523.14,1779.09 2521.82,1782.88 2520.46,1786.67 2519.04,1790.45 1383.16,654.571 1384.58,650.788 1385.94,647 1387.26,643.209 1388.53,639.416 1389.75,635.624 1390.93,631.831 1392.05,628.041 1393.12,624.254 1394.14,620.474 1395.11,616.699 1396.03,612.932 1396.9,609.175 1397.71,605.428 1398.47,601.693 1399.17,597.971 1399.82,594.265 1400.41,590.574 1400.95,586.902 1401.43,583.248 1401.85,579.615 1402.21,576.003 1402.52,572.413 1402.77,568.849 1402.95,565.31 1403.08,561.8 1403.15,558.317 1403.16,554.865 1403.1,551.444 1402.98,548.056 1402.8,544.701 1402.56,541.382 "/>
     <polygon id="_332925888" class="fil1" points="1383.16,654.571 2519.04,1790.45 2517.59,1794.21 2516.1,1797.95 2514.55,1801.69 2512.97,1805.42 2511.34,1809.14 2509.66,1812.85 2507.95,1816.55 2506.19,1820.23 2504.39,1823.9 2502.55,1827.55 2500.66,1831.18 2498.74,1834.79 2496.78,1838.38 2494.78,1841.95 2492.74,1845.49 2490.66,1849.01 2488.55,1852.5 2486.4,1855.96 2484.21,1859.4 2481.99,1862.8 2479.73,1866.17 2477.43,1869.51 2475.11,1872.81 2472.75,1876.08 2470.36,1879.31 2467.93,1882.5 2465.48,1885.65 2462.99,1888.75 2460.47,1891.82 2457.92,1894.84 2455.35,1897.81 2452.74,1900.74 1316.86,764.855 1319.47,761.929 1322.04,758.955 1324.59,755.936 1327.11,752.871 1329.6,749.763 1332.05,746.614 1334.48,743.424 1336.87,740.196 1339.23,736.929 1341.55,733.627 1343.85,730.289 1346.1,726.918 1348.33,723.514 1350.51,720.081 1352.67,716.617 1354.78,713.125 1356.86,709.607 1358.9,706.064 1360.9,702.497 1362.86,698.906 1364.78,695.295 1366.67,691.665 1368.51,688.015 1370.31,684.349 1372.07,680.667 1373.78,676.971 1375.46,673.262 1377.09,669.541 1378.67,665.81 1380.21,662.071 1381.71,658.323 "/>
     <polygon id="_332926968" class="fil1" points="1316.86,764.855 2452.74,1900.74 2451.86,1901.71 2450.98,1902.67 2450.1,1903.62 2449.21,1904.58 2448.32,1905.52 2447.43,1906.46 2446.53,1907.39 2445.63,1908.32 2444.73,1909.25 2443.83,1910.16 2442.92,1911.07 2442.01,1911.98 2441.09,1912.88 2440.18,1913.77 2439.26,1914.66 2438.33,1915.54 1302.45,779.658 1303.37,778.777 1304.29,777.89 1305.21,776.996 1306.13,776.097 1307.04,775.192 1307.95,774.281 1308.85,773.364 1309.75,772.44 1310.65,771.512 1311.55,770.578 1312.44,769.638 1313.33,768.693 1314.22,767.742 1315.1,766.785 1315.98,765.823 "/>
     <polygon id="_332927304" class="fil1" points="1302.45,779.658 2438.33,1915.54 2522.7,2087.28 1386.81,951.393 "/>
     <polygon id="_332927544" class="fil1" points="1386.81,951.393 2522.7,2087.28 2330.79,2394.14 1194.91,1258.26 "/>
     <polygon id="_332927160" class="fil1" points="1194.91,1258.26 2330.79,2394.14 2138.88,2701.01 2137.74,2702.73 2136.53,2704.38 2135.25,2705.94 2133.9,2707.43 2132.49,2708.84 2131.01,2710.16 2129.48,2711.41 2127.9,2712.57 2126.27,2713.66 2124.59,2714.65 2122.88,2715.57 2121.12,2716.4 2119.33,2717.14 2117.51,2717.79 2115.65,2718.36 2113.78,2718.84 2111.88,2719.23 2109.97,2719.53 2108.05,2719.74 2106.11,2719.86 2104.17,2719.88 2102.22,2719.81 2100.28,2719.65 2098.34,2719.39 2096.41,2719.03 2094.49,2718.58 2092.58,2718.03 2090.7,2717.39 2088.83,2716.64 2086.99,2715.79 2085.18,2714.85 2083.41,2713.8 947.525,1577.91 949.301,1578.96 951.111,1579.91 952.95,1580.76 954.815,1581.5 956.701,1582.15 958.607,1582.7 960.528,1583.15 962.459,1583.51 964.398,1583.76 966.342,1583.93 968.287,1584 970.229,1583.97 972.165,1583.86 974.091,1583.65 976.004,1583.35 977.898,1582.96 979.774,1582.48 981.624,1581.91 983.447,1581.26 985.239,1580.51 986.995,1579.69 988.713,1578.77 990.389,1577.77 992.02,1576.69 993.602,1575.53 995.131,1574.28 996.604,1572.96 998.017,1571.55 999.367,1570.06 1000.65,1568.49 1001.86,1566.85 1003,1565.13 "/>
     <polygon id="_332927568" class="fil1" points="947.525,1577.91 2083.41,2713.8 1799.59,2536.31 1797.87,2535.17 1796.23,2533.96 1794.66,2532.68 658.782,1396.79 660.348,1398.08 661.992,1399.29 663.713,1400.43 "/>
     <polygon id="_332927424" class="fil1" points="1379.65,479.176 2515.53,1615.06 2516.94,1616.81 2518.31,1618.59 2519.63,1620.41 2520.91,1622.27 2522.14,1624.17 2523.32,1626.11 2524.46,1628.08 2525.55,1630.08 2526.6,1632.12 2527.61,1634.19 2528.57,1636.3 2529.49,1638.43 2530.36,1640.6 2531.19,1642.81 2531.97,1645.04 2532.72,1647.3 2533.41,1649.59 2534.07,1651.91 2534.69,1654.26 2535.26,1656.63 2535.79,1659.04 2536.28,1661.47 2536.73,1663.92 2537.14,1666.4 2537.51,1668.9 2537.84,1671.43 2538.13,1673.98 1402.25,538.101 1401.96,535.55 1401.63,533.022 1401.26,530.517 1400.85,528.038 1400.4,525.584 1399.91,523.154 1399.38,520.752 1398.81,518.377 1398.19,516.029 1397.53,513.708 1396.83,511.417 1396.09,509.155 1395.3,506.924 1394.48,504.722 1393.6,502.552 1392.69,500.415 1391.73,498.309 1390.72,496.236 1389.67,494.197 1388.58,492.193 1387.44,490.224 1386.26,488.291 1385.03,486.392 1383.75,484.531 1382.43,482.709 1381.06,480.923 "/>
    </g>
    <path id="_341207920" class="fil1" d="M1402.25 538.101c3.63898,34.8012 -3.75473,76.1457 -19.0843,116.47 -15.2291,40.0583 -38.3551,79.3253 -66.3012,110.284 -4.67008,5.17441 -9.47835,10.1197 -14.4095,14.8028l84.3638 171.735 -191.907 306.868 -191.908 306.868c-11.7343,18.763 -36.7111,24.5197 -55.4752,12.7854l-283.812 -177.488c-18.763,-11.7343 -24.5244,-36.7028 -12.7854,-55.4752l383.816 -613.737 153.379 0.546851c2.15197,-46.5496 13.7776,-96.9532 31.6394,-141.121 11.8193,-29.2252 26.3847,-55.8378 42.7642,-76.9312 16.8839,-21.7417 35.85,-37.8 55.9784,-45.176 16.311,-5.97756 33.215,-6.2941 50.2406,0.539764 0.0614174,0.022441 0.122835,0.0472441 0.183071,0.0732284 0.346063,0.13937 0.686221,0.302362 1.01693,0.486615 0.630709,0.349607 1.20827,0.765355 1.72323,1.23662 0.0673229,0.0555119 0.131102,0.114567 0.193701,0.174803 17.8807,16.2437 27.5256,39.7217 30.3839,67.056z"/>
   </g>
  </g>
  <path class="fil2" d="M1024 0c565.539,0 1024,458.461 1024,1024 0,565.539 -458.461,1024 -1024,1024 -565.539,0 -1024,-458.461 -1024,-1024 0,-565.539 458.461,-1024 1024,-1024z"/>
  <path class="fil3" d="M1216.86 815.921c1.77047,4.83662 -0.713386,10.1953 -5.55119,11.9658 -4.83662,1.77047 -10.1941,-0.714567 -11.9646,-5.55119 -22.5496,-61.5308 -10.2673,-155.816 20.4189,-231.695 11.8193,-29.2252 26.3847,-55.8378 42.7642,-76.93 16.8839,-21.7429 35.85,-37.8012 55.9784,-45.1772 16.3689,-5.99882 33.3355,-6.29646 50.4237,0.612993 4.76811,1.94055 7.05945,7.37953 5.12008,12.1465 -1.94055,4.76811 -7.37953,7.05945 -12.1465,5.12008 -12.4547,-5.03741 -24.9059,-4.78819 -36.9827,-0.36378 -16.6477,6.1004 -32.8394,20.0339 -47.667,39.1288 -15.3331,19.7457 -29.0386,44.8276 -40.2248,72.4902 -29.178,72.1489 -41.1213,161.075 -20.1685,218.253z"/>
  <path class="fil4" d="M1034.74 731.215l-383.815 613.738c-11.739,18.7713 -5.97756,43.7398 12.7866,55.4741l283.811 177.489c18.7642,11.7331 43.741,5.97638 55.4752,-12.7866l191.907 -306.868 191.908 -306.868 -107.734 -219.307 -244.338 -0.870473zm162.301 80.9989c-7.92638,12.6756 -4.07717,29.3776 8.59843,37.304 12.6744,7.92757 29.3764,4.07717 37.304,-8.59843 7.92638,-12.6744 4.07717,-29.3764 -8.59843,-37.304 -12.6756,-7.92638 -29.3776,-4.07717 -37.304,8.59843z"/>
  <path class="fil5" d="M1181.89 802.736c-13.1622,21.0461 -6.77008,48.7784 14.276,61.9394 21.0461,13.1622 48.7784,6.77008 61.9406,-14.276 13.161,-21.0461 6.77008,-48.7784 -14.2772,-61.9406 -21.0461,-13.161 -48.7784,-6.77008 -61.9394,14.2772zm15.1571 9.47835c-7.92638,12.6756 -4.07717,29.3776 8.59843,37.304 12.6744,7.92757 29.3764,4.07717 37.304,-8.59843 7.92638,-12.6744 4.07717,-29.3764 -8.59843,-37.304 -12.6756,-7.92638 -29.3776,-4.07717 -37.304,8.59843z"/>
  <path class="fil3" d="M1208.91 827.894c-5.12363,0.551575 -9.7252,-3.15591 -10.278,-8.28072 -0.551575,-5.12481 3.15591,-9.72639 8.28072,-10.2791 34.5236,-3.60945 67.8438,-25.6524 96.1265,-56.9859 26.3752,-29.2193 48.2422,-66.3851 62.6835,-104.371 14.3386,-37.7197 21.2929,-76.0406 17.9634,-107.878 -2.40827,-23.0303 -10.2047,-42.4819 -24.5256,-55.4091 -3.81614,-3.45355 -4.11024,-9.34725 -0.656693,-13.1634 3.45355,-3.81614 9.34725,-4.11024 13.1634,-0.656693 18.0036,16.2496 27.7087,39.7985 30.5776,67.2319 3.64016,34.8 -3.75473,76.1434 -19.0843,116.469 -15.2291,40.0583 -38.3551,79.3264 -66.3012,110.286 -31.1835,34.5473 -68.5111,58.9134 -107.949,63.0378z"/>
  <polygon class="fil6" points="1047.68,1272.21 922.461,1472.45 939.526,1483.12 1064.75,1282.89 "/>
  <polygon class="fil6" points="1028.92,1260.48 903.698,1460.71 915.075,1467.83 1040.3,1267.59 "/>
  <polygon class="fil6" points="1007.31,1246.97 882.09,1447.2 893.468,1454.32 1018.69,1254.08 "/>
  <polygon class="fil6" points="985.704,1233.45 860.483,1433.69 871.861,1440.8 997.081,1240.57 "/>
  <polygon class="fil6" points="964.097,1219.94 838.876,1420.18 850.254,1427.29 975.474,1227.06 "/>
  <polygon class="fil6" points="939.646,1204.65 814.425,1404.88 831.49,1415.56 956.711,1215.32 "/>
  <polygon class="fil6" points="920.883,1192.92 795.661,1393.15 807.038,1400.27 932.26,1200.03 "/>
  <polygon class="fil6" points="877.667,1165.89 752.447,1366.12 763.824,1373.24 889.045,1173.01 "/>
  <polygon class="fil6" points="896.431,1177.62 771.21,1377.86 788.275,1388.53 913.497,1188.3 "/>
 </g>
</svg>
